<?xml version="1.0" encoding="UTF-8" standalone="no"?>
<!-- Created with Inkscape (http://www.inkscape.org/) -->

<svg
   xmlns:dc="http://purl.org/dc/elements/1.1/"
   xmlns:cc="http://creativecommons.org/ns#"
   xmlns:rdf="http://www.w3.org/1999/02/22-rdf-syntax-ns#"
   xmlns:svg="http://www.w3.org/2000/svg"
   xmlns="http://www.w3.org/2000/svg"
   xmlns:sodipodi="http://sodipodi.sourceforge.net/DTD/sodipodi-0.dtd"
   xmlns:inkscape="http://www.inkscape.org/namespaces/inkscape"
   width="210mm"
   height="297mm"
   id="svg2"
   version="1.1"
   inkscape:version="0.48.4 r9939"
   sodipodi:docname="constraints.svg">
  <defs
     id="defs4" />
  <sodipodi:namedview
     id="base"
     pagecolor="#ffffff"
     bordercolor="#666666"
     borderopacity="1.0"
     inkscape:pageopacity="0.0"
     inkscape:pageshadow="2"
     inkscape:zoom="0.7"
     inkscape:cx="228.36148"
     inkscape:cy="326.31063"
     inkscape:document-units="px"
     inkscape:current-layer="layer1"
     showgrid="false"
     inkscape:window-width="1855"
     inkscape:window-height="1176"
     inkscape:window-x="65"
     inkscape:window-y="24"
     inkscape:window-maximized="1"
     inkscape:snap-bbox="true"
     inkscape:bbox-paths="true"
     inkscape:bbox-nodes="true"
     inkscape:snap-bbox-edge-midpoints="true"
     inkscape:snap-bbox-midpoints="true"
     inkscape:object-paths="true"
     inkscape:snap-intersection-paths="true"
     inkscape:object-nodes="true"
     inkscape:snap-smooth-nodes="true"
     inkscape:snap-midpoints="true"
     inkscape:snap-object-midpoints="true"
     inkscape:snap-center="true"
     inkscape:snap-global="false" />
  <metadata
     id="metadata7">
    <rdf:RDF>
      <cc:Work
         rdf:about="">
        <dc:format>image/svg+xml</dc:format>
        <dc:type
           rdf:resource="http://purl.org/dc/dcmitype/StillImage" />
        <dc:title></dc:title>
      </cc:Work>
    </rdf:RDF>
  </metadata>
  <g
     inkscape:label="Calque 1"
     inkscape:groupmode="layer"
     id="layer1">
    <g
       id="g4050"
       transform="translate(-249.28571,15.714286)">
      <rect
         y="767.50427"
         x="229.30972"
         height="200"
         width="200"
         id="rect3902-1"
         style="fill:none;stroke:#000000;stroke-opacity:1" />
      <path
         inkscape:connector-curvature="0"
         id="path3904-2"
         d="m 319.21331,767.50425 c 2.52538,32.56722 -12.87945,46.96189 -9.59645,63.62943 3.28299,16.6675 26.01143,67.1751 19.44543,78.5393 -6.56599,11.3643 -13.13198,31.8199 -13.38452,41.1638 -0.25254,9.3439 -0.75761,16.6675 -0.75761,16.6675"
         style="fill:none;stroke:#000000;stroke-width:1px;stroke-linecap:butt;stroke-linejoin:miter;stroke-opacity:1" />
      <path
         inkscape:connector-curvature="0"
         id="path3906-3"
         d="m 309.61686,831.13368 c -19.69798,-1.5152 -23.73859,16.6675 -20.20305,25.2538 3.53553,8.5863 7.3236,30.052 17.42513,23.2335 10.10152,-6.8185 12.63735,-17.7685 12.63735,-17.7685"
         style="fill:none;stroke:#000000;stroke-width:1px;stroke-linecap:butt;stroke-linejoin:miter;stroke-opacity:1" />
      <path
         inkscape:connector-curvature="0"
         id="path3908-0"
         d="m 229.47063,767.91135 c -0.27669,6.04613 -0.0391,12.18133 -0.11838,18.26166 0,60.27247 0,120.54487 0,180.81727 0.90171,1.1013 2.93818,0.2093 4.28526,0.4972 26.9374,0 53.8748,0 80.8122,0 1.02507,-0.6385 0.2467,-2.3336 0.54559,-3.4012 0.36425,-6.3081 0.34344,-12.692 1.23615,-18.9367 2.42316,-12.5422 6.92043,-24.6149 12.81127,-35.9446 1.89504,-4.3904 0.75269,-9.3356 0.0623,-13.8679 -2.07049,-10.494 -5.28318,-20.7523 -8.97711,-30.7625 -0.0888,-1.0524 -1.57376,-1.0304 -1.40081,0.059 -2.60392,6.0695 -6.57824,11.8389 -12.28756,15.3575 -1.98194,1.3501 -4.74902,1.48 -6.58967,-0.2052 -4.05313,-3.4445 -5.42952,-8.8744 -7.22227,-13.6517 -1.43128,-4.5907 -3.43774,-9.065 -4.29978,-13.7802 -0.76737,-7.0868 2.05243,-14.9694 8.38111,-18.7115 3.63764,-2.1386 7.88908,-2.7636 12.06659,-2.6517 1.0865,-0.923 0.20874,-2.9355 0.49607,-4.2852 -0.25989,-5.0888 0.97568,-10.0301 2.60396,-14.7981 3.17373,-10.75548 7.20499,-21.50482 7.21457,-32.86853 0.0295,-3.66697 0.27829,-7.38785 0.11186,-11.01948 -1.31842,-0.63607 -3.16957,-0.0936 -4.68911,-0.27371 -28.22114,0 -56.44228,0 -84.66341,0 l -0.23139,0.10122 -0.14744,0.0645 z"
         style="fill:none;stroke:#000000;stroke-width:0.25253814;stroke-opacity:1" />
      <path
         inkscape:connector-curvature="0"
         id="path3910-3"
         d="m 229.47063,767.91135 c -0.27669,6.04613 -0.0391,12.18133 -0.11838,18.26166 0,60.27247 0,120.54487 0,180.81727 0.90171,1.1013 2.93818,0.2093 4.28526,0.4972 26.9374,0 53.8748,0 80.8122,0 1.02507,-0.6385 0.2467,-2.3336 0.54559,-3.4012 0.36425,-6.3081 0.34344,-12.692 1.23615,-18.9367 2.42316,-12.5422 6.92043,-24.6149 12.81127,-35.9446 1.89504,-4.3904 0.75269,-9.3356 0.0623,-13.8679 -2.07049,-10.494 -5.28318,-20.7523 -8.97711,-30.7625 -0.0888,-1.0524 -1.57376,-1.0304 -1.40081,0.059 -2.60392,6.0695 -6.57824,11.8389 -12.28756,15.3575 -1.98194,1.3501 -4.74902,1.48 -6.58967,-0.2052 -4.05313,-3.4445 -5.42952,-8.8744 -7.22227,-13.6517 -1.43128,-4.5907 -3.43774,-9.065 -4.29978,-13.7802 -0.76737,-7.0868 2.05243,-14.9694 8.38111,-18.7115 3.63764,-2.1386 7.88908,-2.7636 12.06659,-2.6517 1.0865,-0.923 0.20874,-2.9355 0.49607,-4.2852 -0.25989,-5.0888 0.97568,-10.0301 2.60396,-14.7981 3.17373,-10.75548 7.20499,-21.50482 7.21457,-32.86853 0.0295,-3.66697 0.27829,-7.38785 0.11186,-11.01948 -1.31842,-0.63607 -3.16957,-0.0936 -4.68911,-0.27371 -28.22114,0 -56.44228,0 -84.66341,0 l -0.23139,0.10122 -0.14744,0.0645 z"
         style="fill:none;stroke:#000000;stroke-width:0.25253814;stroke-opacity:1" />
      <path
         inkscape:connector-curvature="0"
         id="path3912-9"
         d="m 229.47063,767.91135 c -0.27669,6.04613 -0.0391,12.18133 -0.11838,18.26166 0,60.27247 0,120.54487 0,180.81727 0.90171,1.1013 2.93818,0.2093 4.28526,0.4972 26.9374,0 53.8748,0 80.8122,0 1.02507,-0.6385 0.2467,-2.3336 0.54559,-3.4012 0.36425,-6.3081 0.34344,-12.692 1.23615,-18.9367 2.42316,-12.5422 6.92043,-24.6149 12.81127,-35.9446 1.89504,-4.3904 0.75269,-9.3356 0.0623,-13.8679 -2.07049,-10.494 -5.28318,-20.7523 -8.97711,-30.7625 -0.0888,-1.0524 -1.57376,-1.0304 -1.40081,0.059 -2.60392,6.0695 -6.57824,11.8389 -12.28756,15.3575 -1.98194,1.3501 -4.74902,1.48 -6.58967,-0.2052 -4.05313,-3.4445 -5.42952,-8.8744 -7.22227,-13.6517 -1.43128,-4.5907 -3.43774,-9.065 -4.29978,-13.7802 -0.76737,-7.0868 2.05243,-14.9694 8.38111,-18.7115 3.63764,-2.1386 7.88908,-2.7636 12.06659,-2.6517 1.0865,-0.923 0.20874,-2.9355 0.49607,-4.2852 -0.25989,-5.0888 0.97568,-10.0301 2.60396,-14.7981 3.17373,-10.75548 7.20499,-21.50482 7.21457,-32.86853 0.0295,-3.66697 0.27829,-7.38785 0.11186,-11.01948 -1.31842,-0.63607 -3.16957,-0.0936 -4.68911,-0.27371 -28.22114,0 -56.44228,0 -84.66341,0 l -0.23139,0.10122 -0.14744,0.0645 z"
         style="fill:none;stroke:#000000;stroke-width:0.25253814;stroke-opacity:1" />
      <path
         inkscape:connector-curvature="0"
         id="path3914-3"
         d="m 229.47063,767.91135 c -0.27669,6.04613 -0.0391,12.18133 -0.11838,18.26166 0,60.27247 0,120.54487 0,180.81727 0.90171,1.1013 2.93818,0.2093 4.28526,0.4972 26.9374,0 53.8748,0 80.8122,0 1.02507,-0.6385 0.2467,-2.3336 0.54559,-3.4012 0.36425,-6.3081 0.34344,-12.692 1.23615,-18.9367 2.42316,-12.5422 6.92043,-24.6149 12.81127,-35.9446 1.89504,-4.3904 0.75269,-9.3356 0.0623,-13.8679 -2.07049,-10.494 -5.28318,-20.7523 -8.97711,-30.7625 -0.0888,-1.0524 -1.57376,-1.0304 -1.40081,0.059 -2.60392,6.0695 -6.57824,11.8389 -12.28756,15.3575 -1.98194,1.3501 -4.74902,1.48 -6.58967,-0.2052 -4.05313,-3.4445 -5.42952,-8.8744 -7.22227,-13.6517 -1.43128,-4.5907 -3.43774,-9.065 -4.29978,-13.7802 -0.76737,-7.0868 2.05243,-14.9694 8.38111,-18.7115 3.63764,-2.1386 7.88908,-2.7636 12.06659,-2.6517 1.0865,-0.923 0.20874,-2.9355 0.49607,-4.2852 -0.25989,-5.0888 0.97568,-10.0301 2.60396,-14.7981 3.17373,-10.75548 7.20499,-21.50482 7.21457,-32.86853 0.0295,-3.66697 0.27829,-7.38785 0.11186,-11.01948 -1.31842,-0.63607 -3.16957,-0.0936 -4.68911,-0.27371 -28.22114,0 -56.44228,0 -84.66341,0 l -0.23139,0.10122 -0.14744,0.0645 z"
         style="fill:none;stroke:#000000;stroke-width:0.25253814;stroke-opacity:1" />
      <path
         inkscape:connector-curvature="0"
         id="path3918-5"
         d="m 229.47063,767.91135 c -0.27669,6.04613 -0.0391,12.18133 -0.11838,18.26166 0,60.27247 0,120.54487 0,180.81727 0.90171,1.1013 2.93818,0.2093 4.28526,0.4972 26.9374,0 53.8748,0 80.8122,0 1.02507,-0.6385 0.2467,-2.3336 0.54559,-3.4012 0.36425,-6.3081 0.34344,-12.692 1.23615,-18.9367 2.42316,-12.5422 6.92043,-24.6149 12.81127,-35.9446 1.89504,-4.3904 0.75269,-9.3356 0.0623,-13.8679 -2.07049,-10.494 -5.28318,-20.7523 -8.97711,-30.7625 -0.0888,-1.0524 -1.57376,-1.0304 -1.40081,0.059 -2.60392,6.0695 -6.57824,11.8389 -12.28756,15.3575 -1.98194,1.3501 -4.74902,1.48 -6.58967,-0.2052 -4.05313,-3.4445 -5.42952,-8.8744 -7.22227,-13.6517 -1.43128,-4.5907 -3.43774,-9.065 -4.29978,-13.7802 -0.76737,-7.0868 2.05243,-14.9694 8.38111,-18.7115 3.63764,-2.1386 7.88908,-2.7636 12.06659,-2.6517 1.0865,-0.923 0.20874,-2.9355 0.49607,-4.2852 -0.25989,-5.0888 0.97568,-10.0301 2.60396,-14.7981 3.17373,-10.75548 7.20499,-21.50482 7.21457,-32.86853 0.0295,-3.66697 0.27829,-7.38785 0.11186,-11.01948 -1.31842,-0.63607 -3.16957,-0.0936 -4.68911,-0.27371 -28.22114,0 -56.44228,0 -84.66341,0 l -0.23139,0.10122 -0.14744,0.0645 z"
         style="fill:#800000;stroke:none" />
      <path
         inkscape:connector-curvature="0"
         id="path3920-3"
         d="m 319.68988,767.91135 c -0.45728,7.49022 0.0129,15.16612 -1.53359,22.5735 -1.90016,9.8108 -5.6157,19.14866 -8.05497,28.81013 -0.74843,4.0896 -0.76437,8.3476 -0.21308,12.4612 2.39317,9.4552 5.91919,18.6396 8.97146,27.9175 3.95404,11.9254 8.34275,23.7645 10.66167,36.1331 0.57308,4.5526 1.73859,9.5534 -0.43712,13.8685 -4.19211,8.6215 -8.04577,17.4482 -10.54658,26.7185 -1.94797,6.2951 -2.72736,12.8582 -2.91997,19.4296 -0.12006,3.785 -0.45887,7.6214 -0.37019,11.3771 1.30389,0.6638 3.17574,0.1005 4.6949,0.287 36.21818,0 72.43636,0 108.65454,0 1.10127,-0.9017 0.20925,-2.9382 0.49718,-4.2852 0,-64.9865 0,-129.973 0,-194.95948 -0.90171,-1.10127 -2.93818,-0.20925 -4.28525,-0.49718 -34.9134,0 -69.8268,0 -104.7402,0 l -0.23136,0.10122 -0.14744,0.0645 z"
         style="fill:#000080;stroke:none" />
      <path
         inkscape:connector-curvature="0"
         id="path3922-7"
         d="m 306.58946,831.21158 c -5.88121,0.1949 -11.98652,2.8148 -15.06548,8.0102 -2.16234,3.3635 -3.20436,7.3511 -2.94365,11.3485 -0.27485,2.2469 0.32648,4.3543 1.16999,6.4144 2.30417,6.2358 3.96454,12.7585 7.11323,18.6337 1.41844,2.5084 3.73234,5.5359 6.97956,5.1144 5.23749,-1.8198 8.9239,-6.3919 11.89581,-10.8749 1.56375,-2.5361 2.94169,-5.2805 3.51691,-8.2154 -3.50174,-10.0601 -7.06905,-20.1839 -9.87317,-30.3987 -0.75889,-0.4346 -1.9159,0.052 -2.7932,-0.032 z"
         style="fill:#008000;stroke:none" />
    </g>
    <rect
       style="fill:none;stroke:#000000;stroke-opacity:1"
       id="rect3902-2"
       width="200"
       height="200"
       x="523.2641"
       y="835.18451" />
    <path
       style="fill:none;stroke:#000000;stroke-width:1px;stroke-linecap:butt;stroke-linejoin:miter;stroke-opacity:1"
       d="m 613.1677,835.18448 c 2.52538,32.56722 -12.87945,46.96192 -9.59645,63.62942 3.283,16.6675 26.01144,67.1751 19.44544,78.5394 -6.56599,11.3642 -13.13198,31.8198 -13.38452,41.1637 -0.25254,9.3439 -0.75762,16.6675 -0.75762,16.6675"
       id="path3904-0"
       inkscape:connector-curvature="0" />
    <path
       style="fill:none;stroke:#000000;stroke-width:1px;stroke-linecap:butt;stroke-linejoin:miter;stroke-opacity:1"
       d="m 602.72989,898.6709 c -2.68006,5.9779 -3.57291,11.8707 0.89138,21.335 4.46428,9.4643 9.80942,9.5269 9.80942,9.5269"
       id="path3971-7"
       inkscape:connector-curvature="0"
       sodipodi:nodetypes="csc" />
    <rect
       style="fill:none;stroke:#000000;stroke-opacity:1"
       id="rect3902-7"
       width="200"
       height="200"
       x="209.28572"
       y="991.64789" />
    <path
       style="fill:none;stroke:#000000;stroke-width:1px;stroke-linecap:butt;stroke-linejoin:miter;stroke-opacity:1"
       d="m 299.18929,991.64789 c 2.52538,32.56721 -12.87944,46.96191 -9.59645,63.62941 3.283,16.6675 26.01144,67.1752 19.44544,78.5394 -6.56599,11.3642 -13.13198,31.8198 -13.38452,41.1637 -0.25254,9.3439 -0.75762,16.6675 -0.75762,16.6675"
       id="path3904-1"
       inkscape:connector-curvature="0" />
    <path
       style="fill:#800000;stroke:none"
       d="m 209.68857,992.12383 c -0.2604,18.39887 -0.0372,36.88147 -0.11161,55.31247 0,47.8572 0,95.7143 0,143.5715 1.53566,1.1585 4.23842,0.1773 6.21652,0.5022 26.16443,0 52.32887,0 78.4933,0 1.17995,-1.4953 0.33184,-4.1653 0.72545,-6.1049 0.29905,-9.4979 0.97371,-19.0564 4.11745,-28.0819 2.63081,-8.8107 6.41219,-17.2187 10.55889,-25.4226 0.3239,-7.1059 -0.41801,-14.2327 -2.59578,-21.0216 -5.29279,-18.4004 -12.20095,-36.3112 -17.47658,-54.7097 -2.14171,-11.1234 3.12793,-21.7141 5.80768,-32.2759 2.75495,-8.9522 4.0673,-18.3173 3.72896,-27.6959 -0.0709,-1.87613 0.80682,-5.22549 -2.28794,-4.2634 -28.92857,0 -57.85715,0 -86.78572,0 l -0.32125,0.15604 -0.0694,0.0337 z"
       id="path4062"
       inkscape:connector-curvature="0" />
    <path
       style="fill:#000080;stroke:none"
       d="m 299.68857,992.12383 c -0.12353,8.49737 -0.11185,17.12917 -2.20071,25.45097 -2.09988,10.4418 -6.77404,20.3366 -8.07831,30.9441 -0.45804,7.6919 2.85284,14.9498 5.01786,22.1584 5.24941,16.0261 11.44795,31.8236 14.93918,48.3484 0.71348,4.6335 1.63969,9.6809 0.0988,14.2142 -5.62945,10.9306 -10.02987,22.5434 -12.62276,34.5759 -1.40575,7.6344 -1.30695,15.4402 -1.62947,23.1808 1.51777,1.1798 4.24073,0.1845 6.21652,0.5134 35.74033,0 71.48065,0 107.22098,0 1.15858,-1.5357 0.17737,-4.2384 0.50223,-6.2165 0,-64.2857 0,-128.5715 0,-192.85717 -1.53565,-1.15858 -4.23841,-0.17736 -6.21651,-0.50223 -34.28572,0 -68.57143,0 -102.85715,0 l -0.32125,0.15604 -0.0694,0.0337 z"
       id="path4064"
       inkscape:connector-curvature="0" />
    <path
       style="fill:#000080;stroke:none"
       d="m 602.74189,899.12838 c -0.77178,1.30033 -1.16498,2.82205 -1.58231,4.27342 -1.25195,4.64671 -0.34105,9.5861 1.42053,13.97641 1.6553,4.11986 3.88669,8.31143 7.6673,10.84737 0.73844,0.4043 1.54111,0.99851 2.3941,0.97228 0.79708,-0.36669 0.0145,-1.29528 -0.0708,-1.88809 -2.87963,-8.48269 -6.00865,-16.90911 -8.3581,-25.53721 -0.26945,-0.85591 -0.32819,-1.877 -0.77621,-2.62839 -0.20798,-0.1602 -0.43899,-0.18668 -0.69448,-0.0158 z"
       id="path4068"
       inkscape:connector-curvature="0" />
    <path
       style="fill:#000080;stroke:none"
       d="m 613.55368,835.3625 c -0.37326,0.9757 -0.0654,2.10988 -0.16573,3.14884 -0.0116,5.3415 0.16064,10.7195 -0.74972,15.99671 -1.31011,9.85553 -4.88454,19.18088 -7.67774,28.67287 -1.0891,3.806 -1.85675,7.73908 -1.71836,11.71744 0.0918,4.30705 1.56782,8.43655 2.76796,12.53676 5.19708,16.37908 11.6115,32.39252 15.8749,49.03958 1.29495,5.39044 2.59623,10.91339 2.28713,16.49347 -0.0212,2.1244 -0.87939,4.06915 -1.8936,5.89068 -4.5915,8.63688 -7.85643,17.92576 -10.43311,27.34565 -1.22658,4.6692 -2.14854,9.4521 -2.20156,14.3037 -0.16714,4.7292 -0.45879,9.4756 -0.61171,14.1912 0.34242,0.7616 1.43068,0.2684 2.1027,0.4089 37.17835,0 74.3567,0 111.53505,0 0.88568,-0.2787 0.35905,-1.4488 0.50113,-2.1426 0,-65.7441 0,-131.48819 0,-197.23228 -0.27872,-0.88568 -1.44889,-0.35905 -2.14263,-0.50113 -35.7131,0 -71.4262,0 -107.13931,0 -0.1118,0.0434 -0.2236,0.0868 -0.3354,0.13021 z"
       id="path4070"
       inkscape:connector-curvature="0" />
    <path
       style="fill:#800000;stroke:none"
       d="m 523.35926,836.05878 c 0,66.165 0,132.32999 0,198.49502 2.94693,1.1829 6.80527,0.1655 10.10153,0.505 24.88553,0 49.77106,0 74.65658,0 1.26772,-3.079 0.46645,-7.0737 0.97477,-10.5101 0.41485,-17.4192 6.65142,-34.01325 14.52476,-49.3414 0.49685,-14.97972 -5.04208,-29.24952 -9.81742,-43.18402 -0.66746,-3.17537 -4.51873,-2.98736 -6.04513,-5.47693 -6.37471,-7.44219 -9.95742,-18.64507 -5.27173,-27.79497 1.05648,-4.79489 0.14976,-9.88464 1.94138,-14.61565 4.17464,-14.26855 9.25195,-28.71485 8.82305,-43.81537 -0.0358,-1.67587 0.33669,-4.69096 -2.22549,-4.40363 -26.78361,-0.74481 -53.59261,-0.18859 -80.38604,-0.36302 -2.29384,0.34124 -5.36203,-0.68198 -7.27626,0.50507 z"
       id="path4072"
       inkscape:connector-curvature="0" />
    <path
       sodipodi:type="arc"
       style="fill:#000080;stroke:none"
       id="path4074"
       sodipodi:cx="595.35712"
       sodipodi:cy="1076.6479"
       sodipodi:rx="8.5714283"
       sodipodi:ry="9.6428576"
       d="m 603.92854,1076.6479 a 8.5714283,9.6428576 0 1 1 -17.14285,0 8.5714283,9.6428576 0 1 1 17.14285,0 z"
       transform="translate(15.404826,-176.01908)" />
    <path
       sodipodi:type="arc"
       style="fill:#000080;stroke:none"
       id="path4074-5"
       sodipodi:cx="595.35712"
       sodipodi:cy="1076.6479"
       sodipodi:rx="8.5714283"
       sodipodi:ry="9.6428576"
       d="m 603.92854,1076.6479 a 8.5714283,9.6428576 0 1 1 -17.14285,0 8.5714283,9.6428576 0 1 1 17.14285,0 z"
       transform="translate(17.174135,-163.74996)" />
    <path
       sodipodi:type="arc"
       style="fill:#000080;stroke:none"
       id="path4074-4"
       sodipodi:cx="595.35712"
       sodipodi:cy="1076.6479"
       sodipodi:rx="8.5714283"
       sodipodi:ry="9.6428576"
       d="m 603.92854,1076.6479 a 8.5714283,9.6428576 0 1 1 -17.14285,0 8.5714283,9.6428576 0 1 1 17.14285,0 z"
       transform="translate(21.467283,-156.80515)" />
    <path
       sodipodi:type="arc"
       style="fill:#000080;stroke:none"
       id="path4074-41"
       sodipodi:cx="595.35712"
       sodipodi:cy="1076.6479"
       sodipodi:rx="8.5714283"
       sodipodi:ry="9.6428576"
       d="m 603.92854,1076.6479 a 8.5714283,9.6428576 0 1 1 -17.14285,0 8.5714283,9.6428576 0 1 1 17.14285,0 z"
       transform="translate(23.298184,-153.52216)" />
  </g>
</svg>
