<?xml version="1.0" encoding="UTF-8" standalone="no"?>
<!-- Created with Inkscape (http://www.inkscape.org/) -->

<svg
   xmlns:dc="http://purl.org/dc/elements/1.1/"
   xmlns:cc="http://creativecommons.org/ns#"
   xmlns:rdf="http://www.w3.org/1999/02/22-rdf-syntax-ns#"
   xmlns:svg="http://www.w3.org/2000/svg"
   xmlns="http://www.w3.org/2000/svg"
   xmlns:sodipodi="http://sodipodi.sourceforge.net/DTD/sodipodi-0.dtd"
   xmlns:inkscape="http://www.inkscape.org/namespaces/inkscape"
   width="1149.004"
   height="842.78613"
   id="svg2"
   version="1.1"
   inkscape:version="0.48.4 r9939"
   sodipodi:docname="seg_hierar.eps">
  <sodipodi:namedview
     id="base"
     pagecolor="#ffffff"
     bordercolor="#666666"
     borderopacity="1.0"
     inkscape:pageopacity="0.0"
     inkscape:pageshadow="2"
     inkscape:zoom="0.60027393"
     inkscape:cx="468.2794"
     inkscape:cy="450.10113"
     inkscape:document-units="px"
     inkscape:current-layer="layer1"
     showgrid="false"
     inkscape:snap-bbox="true"
     inkscape:bbox-paths="true"
     inkscape:bbox-nodes="true"
     inkscape:snap-bbox-edge-midpoints="true"
     inkscape:snap-bbox-midpoints="true"
     inkscape:object-paths="true"
     inkscape:snap-intersection-paths="true"
     inkscape:object-nodes="true"
     inkscape:snap-smooth-nodes="true"
     inkscape:snap-midpoints="true"
     inkscape:snap-object-midpoints="true"
     inkscape:snap-center="true"
     fit-margin-top="5"
     fit-margin-left="5"
     fit-margin-right="5"
     fit-margin-bottom="5"
     inkscape:window-width="1213"
     inkscape:window-height="1000"
     inkscape:window-x="67"
     inkscape:window-y="24"
     inkscape:window-maximized="1"
     inkscape:snap-global="true" />
  <defs
     id="defs4">
    <marker
       inkscape:stockid="Arrow2Lend"
       orient="auto"
       refY="0"
       refX="0"
       id="Arrow2Lend"
       style="overflow:visible">
      <path
         inkscape:connector-curvature="0"
         id="path4504"
         style="fill-rule:evenodd;stroke-width:0.625;stroke-linejoin:round"
         d="M 8.7185878,4.0337352 -2.2072895,0.01601326 8.7185884,-4.0017078 c -1.7454984,2.3720609 -1.7354408,5.6174519 -6e-7,8.035443 z"
         transform="matrix(-1.1,0,0,-1.1,-1.1,0)" />
    </marker>
    <marker
       inkscape:stockid="Arrow1Lend"
       orient="auto"
       refY="0"
       refX="0"
       id="Arrow1Lend"
       style="overflow:visible">
      <path
         inkscape:connector-curvature="0"
         id="path4486"
         d="M 0,0 5,-5 -12.5,0 5,5 0,0 z"
         style="fill-rule:evenodd;stroke:#000000;stroke-width:1pt"
         transform="matrix(-0.8,0,0,-0.8,-10,0)" />
    </marker>
    <marker
       inkscape:stockid="Arrow2Lend"
       orient="auto"
       refY="0"
       refX="0"
       id="Arrow2Lend-6"
       style="overflow:visible">
      <path
         inkscape:connector-curvature="0"
         id="path4504-6"
         style="fill-rule:evenodd;stroke-width:0.625;stroke-linejoin:round"
         d="M 8.7185878,4.0337352 -2.2072895,0.01601326 8.7185884,-4.0017078 c -1.7454984,2.3720609 -1.7354408,5.6174519 -6e-7,8.035443 z"
         transform="matrix(-1.1,0,0,-1.1,-1.1,0)" />
    </marker>
    <marker
       inkscape:stockid="Arrow2Lend"
       orient="auto"
       refY="0"
       refX="0"
       id="Arrow2Lend-2"
       style="overflow:visible">
      <path
         inkscape:connector-curvature="0"
         id="path4504-0"
         style="fill-rule:evenodd;stroke-width:0.625;stroke-linejoin:round"
         d="M 8.7185878,4.0337352 -2.2072895,0.01601326 8.7185884,-4.0017078 c -1.7454984,2.3720609 -1.7354408,5.6174519 -6e-7,8.035443 z"
         transform="matrix(-1.1,0,0,-1.1,-1.1,0)" />
    </marker>
    <marker
       inkscape:stockid="Arrow2Lend"
       orient="auto"
       refY="0"
       refX="0"
       id="Arrow2Lend-2-4"
       style="overflow:visible">
      <path
         inkscape:connector-curvature="0"
         id="path4504-0-4"
         style="fill-rule:evenodd;stroke-width:0.625;stroke-linejoin:round"
         d="M 8.7185878,4.0337352 -2.2072895,0.01601326 8.7185884,-4.0017078 c -1.7454984,2.3720609 -1.7354408,5.6174519 -6e-7,8.035443 z"
         transform="matrix(-1.1,0,0,-1.1,-1.1,0)" />
    </marker>
  </defs>
  <metadata
     id="metadata7">
    <rdf:RDF>
      <cc:Work
         rdf:about="">
        <dc:format>image/svg+xml</dc:format>
        <dc:type
           rdf:resource="http://purl.org/dc/dcmitype/StillImage" />
        <dc:title></dc:title>
      </cc:Work>
    </rdf:RDF>
  </metadata>
  <g
     inkscape:label="Calque 1"
     inkscape:groupmode="layer"
     id="layer1"
     transform="translate(324.19011,14.137487)">
    <path
       style="fill:none;stroke:#000000;stroke-width:1px;stroke-linecap:butt;stroke-linejoin:miter;stroke-opacity:1"
       d="m 0.5,441.28945 207.66196,0 69.46439,-149.14321 -207.66196,0 z"
       id="path3022-8-9"
       inkscape:connector-curvature="0" />
    <path
       style="fill:none;stroke:#000000;stroke-width:1px;stroke-linecap:butt;stroke-linejoin:miter;stroke-opacity:1"
       d="m 69.96439,292.14624 43.91466,43.5975 -28.379289,105.54571 -84.999761,0 z"
       id="path3024-8-6"
       inkscape:connector-curvature="0" />
    <path
       style="fill:none;stroke:#000000;stroke-width:1px;stroke-linecap:butt;stroke-linejoin:miter;stroke-opacity:1"
       d="m 69.96439,292.14624 43.91466,43.5975 129.0151,30.97413 34.7322,-74.57163 z"
       id="path3026-3-0"
       inkscape:connector-curvature="0" />
    <path
       style="fill:#00ff00;fill-opacity:1;stroke:none"
       d="m 69.715267,293.37001 c -23.015344,48.87374 -45.616697,97.95454 -68.59271,146.84791 0.115244,1.66211 2.95112,0.41794 4.16918,0.79751 26.587489,-0.0461 53.174975,-0.0922 79.762464,-0.13826 1.18206,-1.12929 1.02338,-3.31112 1.68292,-4.84541 8.96246,-33.32114 17.921039,-66.64333 26.877359,-99.96612 -1.51448,-2.32131 -3.99405,-4.0851 -5.88325,-6.18994 -12.404389,-12.21112 -24.604741,-24.64229 -37.255803,-36.58714 -0.261704,-0.14257 -0.48716,-0.16751 -0.76016,0.0814 z"
       id="path3954"
       inkscape:connector-curvature="0" />
    <path
       style="fill:#ff6600;fill-opacity:1;stroke:none"
       d="m 174.16325,292.54696 c -34.08521,0.004 -68.17042,0.009 -102.255637,0.0128 -1.108435,1.63265 2.883086,3.3071 3.730626,4.88954 12.926117,12.72233 25.742151,25.59307 38.745781,38.21396 42.60095,10.09901 85.11279,20.59406 127.73636,30.58711 1.68149,-1.1021 1.92106,-3.76313 3.08431,-5.40074 10.72414,-22.4558 21.07279,-45.0861 31.64933,-67.61158 -0.9046,-1.72485 -4.36116,-0.20605 -6.18141,-0.71525 -32.16978,0.008 -64.33957,0.0161 -96.50936,0.0242 z"
       id="path4003"
       inkscape:connector-curvature="0" />
    <path
       style="fill:#ff0000;fill-opacity:1;stroke:none"
       d="m 114.12806,336.55912 c -9.12347,32.59148 -17.780073,65.3533 -26.594147,98.04511 -0.111124,2.01653 -2.070638,4.71585 -1.011039,6.34779 40.432996,-0.0683 80.865996,-0.13651 121.298996,-0.20477 2.49849,-3.7953 4.02542,-8.43013 6.1534,-12.5456 9.35414,-20.26715 19.02189,-40.41541 28.04273,-60.81226 -0.82431,-1.42519 -3.32776,-1.01628 -4.78698,-1.7232 -40.85346,-9.90675 -81.72372,-19.79579 -122.68063,-29.24785 l -0.38852,0.12951 -0.0338,0.0113 z"
       id="path4005"
       inkscape:connector-curvature="0" />
    <path
       style="fill:none;stroke:#000000;stroke-width:1px;stroke-linecap:butt;stroke-linejoin:miter;stroke-opacity:1"
       d="m 0.5,631.43271 207.66196,0 69.46439,-149.14326 -207.66196,0 z"
       id="path3022-8-3-6"
       inkscape:connector-curvature="0" />
    <path
       style="fill:none;stroke:#000000;stroke-width:1px;stroke-linecap:butt;stroke-linejoin:miter;stroke-opacity:1"
       d="m 69.96439,482.28945 43.91466,43.5975 -28.37929,105.54576 -84.99976,0 z"
       id="path3024-8-9-5"
       inkscape:connector-curvature="0" />
    <path
       style="fill:none;stroke:#000000;stroke-width:1px;stroke-linecap:butt;stroke-linejoin:miter;stroke-opacity:1"
       d="m 69.96439,482.28945 43.91466,43.5975 129.0151,30.97413 34.7322,-74.57163 z"
       id="path3026-3-8-4"
       inkscape:connector-curvature="0" />
    <path
       style="fill:none;stroke:#000000;stroke-width:1px;stroke-linecap:butt;stroke-linejoin:miter;stroke-opacity:1"
       d="M 104.31724,561.44838 29.06807,570.09573 0.5,631.43271 l 84.99976,0 z"
       id="path3030-0-5-8"
       inkscape:connector-curvature="0" />
    <path
       style="fill:none;stroke:#000000;stroke-width:1px;stroke-linecap:butt;stroke-linejoin:miter;stroke-opacity:1"
       d="m 0.5,251.12167 207.66196,0 69.46439,-149.14326 -207.661957,0 z"
       id="path3022"
       inkscape:connector-curvature="0" />
    <path
       style="fill:none;stroke:#000000;stroke-width:1px;stroke-linecap:butt;stroke-linejoin:miter;stroke-opacity:1"
       d="m 69.964393,101.97841 43.914657,43.5975 -28.379289,105.54576 -84.999761,0 z"
       id="path3024"
       inkscape:connector-curvature="0" />
    <path
       style="fill:#00ff00;fill-opacity:1;stroke:none"
       d="m 69.889736,103.4342 c -8.302271,16.8587 -16.039663,34.08585 -24.092225,51.10119 -14.873859,31.86895 -29.789306,63.74128 -44.5047995,95.66573 0.4641669,1.61444 3.1176354,0.37257 4.4408714,0.78451 26.4221061,0.11255 52.8525841,0.2802 79.2705351,0.0218 1.769516,-4.1093 2.474579,-8.86285 3.842854,-13.21679 8.22964,-30.56143 16.474388,-61.11876 24.722178,-91.67527 -3.25442,-4.09076 -7.50971,-7.60584 -11.14543,-11.47729 -10.609245,-10.40635 -20.89071,-21.25809 -31.93248,-31.13989 -0.168638,-0.12723 -0.407413,-0.13167 -0.601504,-0.064 z"
       id="path4053"
       inkscape:connector-curvature="0" />
    <path
       style="fill:#ff0000;fill-opacity:1;stroke:none"
       d="m 71.591864,102.47435 c 0.591745,2.10198 3.293445,3.47803 4.666195,5.3044 12.620605,12.65075 25.241021,25.3017 37.861401,37.95268 -9.35768,34.93137 -18.916323,69.81254 -28.142698,104.77684 1.383863,1.47644 4.587013,0.1768 6.629339,0.6143 38.321339,0 76.642669,0 114.964009,0 2.49861,-3.79525 4.02573,-8.42999 6.15385,-12.54538 20.96794,-45.10648 42.09393,-90.1666 62.8911,-135.33496 -0.69525,-1.6077 -3.56573,-0.25181 -5.01667,-0.74163 -66.53589,-0.3658 -133.07324,-0.1653 -199.60979,-0.21821 l -0.368646,0.17837 -0.02809,0.0136 z"
       id="path4055"
       inkscape:connector-curvature="0" />
    <g
       transform="translate(-1138.6332,205.81236)"
       id="g5325">
      <g
         id="g5310"
         transform="translate(-5.12153,-39.843551)">
        <path
           style="font-style:normal;font-variant:normal;font-weight:normal;font-stretch:normal;letter-spacing:normal;word-spacing:normal;text-anchor:start;fill:#000000;stroke:#000000;stroke-width:0;stroke-linecap:butt;stroke-linejoin:miter;stroke-miterlimit:10.43299961;stroke-opacity:1;stroke-dasharray:none;stroke-dashoffset:0"
           inkscape:connector-curvature="0"
           d="m 836.91089,276.51219 -5.39039,-1.30317 c -2.62326,-0.63466 -4.26492,-2.91098 -4.26492,-5.35654 0,-2.95328 2.27632,-5.52578 5.56809,-5.52578 7.03204,0 7.96288,6.91357 8.21674,8.81756 0.0339,0.25386 0.0339,0.49926 0.50773,0.49926 0.55004,0 0.55004,-0.21155 0.55004,-1.01545 v -8.46215 c 0,-0.72774 0,-1.01545 -0.46542,-1.01545 -0.29617,0 -0.34694,0.0339 -0.63466,0.55004 l -1.47241,2.39478 c -1.26932,-1.21855 -2.9956,-2.94482 -6.75279,-2.94482 -4.67956,0 -8.20828,3.71488 -8.20828,8.18289 0,3.4864 2.23401,6.56662 5.50886,7.70901 0.46542,0.16924 2.62326,0.66851 5.56809,1.38779 1.13392,0.30464 2.40325,0.59235 3.57948,2.14938 0.88853,1.10008 1.31164,2.48787 1.31164,3.87566 0,3.00407 -2.09862,6.03351 -5.64425,6.03351 -1.22701,0 -4.4257,-0.21155 -6.66817,-2.27631 -2.44556,-2.27632 -2.57249,-4.96728 -2.6148,-6.49047 -0.0423,-0.4231 -0.37234,-0.4231 -0.49927,-0.4231 -0.54158,0 -0.54158,0.30463 -0.54158,1.05776 v 8.43676 c 0,0.71082 0,0.99853 0.45696,0.99853 0.29617,0 0.33002,-0.0762 0.6262,-0.54158 0,-0.0338 0.12693,-0.16924 1.51472,-2.40324 1.31163,1.4301 4.01106,2.94482 7.76825,2.94482 4.92496,0 8.30136,-4.12106 8.30136,-8.75831 0,-4.22261 -2.77558,-7.67517 -6.32122,-8.52138 z"
           id="path5162" />
        <path
           style="font-style:normal;font-variant:normal;font-weight:normal;font-stretch:normal;letter-spacing:normal;word-spacing:normal;text-anchor:start;fill:#000000;stroke:#000000;stroke-width:0;stroke-linecap:butt;stroke-linejoin:miter;stroke-miterlimit:10.43299961;stroke-opacity:1;stroke-dasharray:none;stroke-dashoffset:0"
           inkscape:connector-curvature="0"
           d="m 850.33184,283.12958 0.0423,-0.88852 c 0.2454,-6.27891 3.79104,-7.32822 5.2296,-7.32822 4.34108,0 4.76418,5.68656 4.76418,7.32822 h -9.99378 l -0.0423,0.88852 h 11.77084 c 0.92238,0 1.04085,0 1.04085,-0.88852 0,-4.16338 -2.27632,-8.25059 -7.53977,-8.25059 -4.89112,0 -8.77524,4.33262 -8.77524,9.61299 0,5.64425 4.4257,9.73147 9.28297,9.73147 5.14498,0 7.03204,-4.67957 7.03204,-5.47501 0,-0.42311 -0.33003,-0.51619 -0.54158,-0.51619 -0.3808,0 -0.46542,0.25386 -0.5585,0.59235 -1.46395,4.34108 -5.26345,4.34108 -5.68656,4.34108 -2.11554,0 -3.79104,-1.26086 -4.75572,-2.81789 -1.26933,-2.02246 -1.26933,-4.81496 -1.26933,-6.32969 z"
           id="path5164" />
        <path
           style="font-style:normal;font-variant:normal;font-weight:normal;font-stretch:normal;letter-spacing:normal;word-spacing:normal;text-anchor:start;fill:#000000;stroke:#000000;stroke-width:0;stroke-linecap:butt;stroke-linejoin:miter;stroke-miterlimit:10.43299961;stroke-opacity:1;stroke-dasharray:none;stroke-dashoffset:0"
           inkscape:connector-curvature="0"
           d="m 868.8047,287.26757 0,-0.0254 0,-0.0169 0,-0.0254 0,-0.0338 0,-0.0338 0,-0.0423 0.008,-0.0423 0,-0.0508 0.008,-0.0423 0,-0.0592 0.008,-0.0508 0.008,-0.0592 0.008,-0.0592 0.0169,-0.0677 0.008,-0.0677 0.0169,-0.0677 0.0169,-0.0677 0.0254,-0.0677 0.0169,-0.0762 0.0254,-0.0762 0.0339,-0.0762 0.0254,-0.0762 0.0339,-0.0762 0.0338,-0.0846 0.0423,-0.0762 0.0423,-0.0846 0.0423,-0.0762 0.0508,-0.0846 0.0592,-0.0762 0.0508,-0.0846 0.0592,-0.0762 0.0677,-0.0846 c 1.65858,1.17623 3.37639,1.31163 4.1803,1.31163 v -0.96469 c -3.68103,0 -3.68103,-4.2226 -3.68103,-5.19575 0,-1.14239 0.0592,-2.48787 0.67697,-3.52871 0.34695,-0.51619 1.31163,-1.69243 3.00406,-1.69243 3.66411,0 3.66411,4.21415 3.66411,5.17883 0,1.13393 -0.0423,2.48787 -0.67698,3.54564 -0.33002,0.49926 -1.31163,1.69242 -2.98713,1.69242 h 0 v 0.96469 c 3.90951,0 6.82048,-2.91098 6.82048,-6.16044 0,-1.5655 -0.66851,-3.12253 -1.71781,-4.08721 1.50626,-1.43011 3.02945,-1.64166 3.7995,-1.64166 0.0762,0 0.28771,0 0.42311,0.0423 -0.48234,0.16924 -0.67697,0.63466 -0.67697,1.13393 0,0.71928 0.54157,1.21855 1.21008,1.21855 0.42311,0 1.21855,-0.28772 1.21855,-1.2524 0,-0.71928 -0.49927,-2.06476 -2.14092,-2.06476 -0.84621,0 -2.69942,0.25386 -4.46801,1.97168 -1.76859,-1.3878 -3.54564,-1.50627 -4.46801,-1.50627 -3.92644,0 -6.83741,2.90252 -6.83741,6.14352 0,1.85321 0.92237,3.46102 1.98014,4.34954 -0.54158,0.6262 -1.30317,2.02245 -1.30317,3.49486 0,1.30317 0.55004,2.90252 1.86167,3.74873 -2.53864,0.71929 -3.88412,2.53018 -3.88412,4.22261 0,3.02945 4.17183,5.35654 9.31681,5.35654 l 0.0423,-0.96469 c -4.25646,0 -7.16744,-2.15784 -7.16744,-4.39185 0,-1.94629 1.59935,-3.50332 3.46948,-3.62179 h 2.47941 c 3.62179,0 8.34367,0 8.34367,3.62179 0,2.27632 -2.98714,4.39185 -7.12512,4.39185 h 0 l -0.0423,0.96469 c 4.97574,0 9.35913,-2.15785 9.35913,-5.44116 0,-1.48087 -0.59235,-3.63026 -2.73327,-4.8065 -2.234,-1.17623 -4.67956,-1.17623 -7.26052,-1.17623 -1.05776,0 -2.86866,0 -3.15637,-0.0423 -1.35395,-0.16925 -2.23401,-1.48088 -2.23401,-2.82636 z"
           id="path5166" />
        <path
           style="font-style:normal;font-variant:normal;font-weight:normal;font-stretch:normal;letter-spacing:normal;word-spacing:normal;text-anchor:start;fill:#000000;stroke:#000000;stroke-width:0;stroke-linecap:butt;stroke-linejoin:miter;stroke-miterlimit:10.43299961;stroke-opacity:1;stroke-dasharray:none;stroke-dashoffset:0"
           inkscape:connector-curvature="0"
           d="m 890.09545,278.3654 v 11.30542 c 0,1.88706 -0.46542,1.88706 -3.29177,1.88706 v 1.31163 c 1.48087,-0.0423 3.62179,-0.1354 4.75572,-0.1354 1.10008,0 3.29177,0.0931 4.72187,0.1354 v -1.31163 c -2.81789,0 -3.27484,0 -3.27484,-1.88706 v -7.75979 c 0,-4.39185 2.98713,-6.74432 5.67809,-6.74432 2.65711,0 3.12253,2.27631 3.12253,4.67956 v 9.82455 c 0,1.88706 -0.46542,1.88706 -3.29177,1.88706 v 1.31163 c 1.48087,-0.0423 3.63872,-0.1354 4.77265,-0.1354 1.10008,0 3.28331,0.0931 4.72187,0.1354 v -1.31163 c -2.82635,0 -3.29177,0 -3.29177,-1.88706 v -7.75979 c 0,-4.39185 3.00406,-6.74432 5.69502,-6.74432 2.65711,0 3.12253,2.27631 3.12253,4.67956 v 9.82455 c 0,1.88706 -0.46542,1.88706 -3.29177,1.88706 v 1.31163 c 1.46395,-0.0423 3.62179,-0.1354 4.76418,-0.1354 1.09162,0 3.29178,0.0931 4.71342,0.1354 v -1.31163 c -2.17477,0 -3.23254,0 -3.27485,-1.26932 v -8.0475 c 0,-3.6218 0,-4.93343 -1.31163,-6.43969 -0.59235,-0.72775 -1.98015,-1.55704 -4.4257,-1.55704 -3.54564,0 -5.39885,2.52172 -6.10967,4.12107 -0.59235,-3.66411 -3.71488,-4.12107 -5.6104,-4.12107 -3.08022,0 -5.06036,1.8109 -6.2366,4.40878 v -4.40878 l -5.94888,0.45696 v 1.31163 c 2.94482,0 3.29177,0.28771 3.29177,2.35248 z"
           id="path5168" />
        <path
           style="font-style:normal;font-variant:normal;font-weight:normal;font-stretch:normal;letter-spacing:normal;word-spacing:normal;text-anchor:start;fill:#000000;stroke:#000000;stroke-width:0;stroke-linecap:butt;stroke-linejoin:miter;stroke-miterlimit:10.43299961;stroke-opacity:1;stroke-dasharray:none;stroke-dashoffset:0"
           inkscape:connector-curvature="0"
           d="m 925.26411,283.12958 0.0423,-0.88852 c 0.25386,-6.27891 3.79104,-7.32822 5.23807,-7.32822 4.33261,0 4.75572,5.68656 4.75572,7.32822 h -9.99379 l -0.0423,0.88852 h 11.77084 c 0.92237,0 1.0493,0 1.0493,-0.88852 0,-4.16338 -2.27631,-8.25059 -7.53976,-8.25059 -4.89112,0 -8.78371,4.33262 -8.78371,9.61299 0,5.64425 4.43416,9.73147 9.28297,9.73147 5.14498,0 7.0405,-4.67957 7.0405,-5.47501 0,-0.42311 -0.33848,-0.51619 -0.55004,-0.51619 -0.38079,0 -0.45695,0.25386 -0.55004,0.59235 -1.47241,4.34108 -5.26345,4.34108 -5.68655,4.34108 -2.11554,0 -3.79104,-1.26086 -4.76419,-2.81789 -1.26932,-2.02246 -1.26932,-4.81496 -1.26932,-6.32969 z"
           id="path5170" />
        <path
           style="font-style:normal;font-variant:normal;font-weight:normal;font-stretch:normal;letter-spacing:normal;word-spacing:normal;text-anchor:start;fill:#000000;stroke:#000000;stroke-width:0;stroke-linecap:butt;stroke-linejoin:miter;stroke-miterlimit:10.43299961;stroke-opacity:1;stroke-dasharray:none;stroke-dashoffset:0"
           inkscape:connector-curvature="0"
           d="m 943.90621,278.3654 v 11.30542 c 0,1.88706 -0.45696,1.88706 -3.28331,1.88706 v 1.31163 c 1.48087,-0.0423 3.62179,-0.1354 4.75572,-0.1354 1.10008,0 3.29177,0.0931 4.72187,0.1354 v -1.31163 c -2.81789,0 -3.28331,0 -3.28331,-1.88706 v -7.75979 c 0,-4.39185 2.98714,-6.74432 5.68656,-6.74432 2.65712,0 3.12253,2.27631 3.12253,4.67956 v 9.82455 c 0,1.88706 -0.46541,1.88706 -3.29177,1.88706 v 1.31163 c 1.48087,-0.0423 3.63026,-0.1354 4.77265,-0.1354 1.10008,0 3.27485,0.0931 4.72187,0.1354 v -1.31163 c -2.20015,0 -3.25792,0 -3.29177,-1.26932 v -8.0475 c 0,-3.6218 0,-4.93343 -1.31163,-6.43969 -0.58389,-0.72775 -1.98014,-1.55704 -4.41724,-1.55704 -3.08022,0 -5.06036,1.8109 -6.2366,4.40878 v -4.40878 l -5.94888,0.45696 v 1.31163 c 2.94482,0 3.28331,0.28771 3.28331,2.35248 z"
           id="path5172" />
        <path
           style="font-style:normal;font-variant:normal;font-weight:normal;font-stretch:normal;letter-spacing:normal;word-spacing:normal;text-anchor:start;fill:#000000;stroke:#000000;stroke-width:0;stroke-linecap:butt;stroke-linejoin:miter;stroke-miterlimit:10.43299961;stroke-opacity:1;stroke-dasharray:none;stroke-dashoffset:0"
           inkscape:connector-curvature="0"
           d="m 968.80183,276.01292 h 6.0335 v -1.31163 h -6.0335 v -7.75978 h -1.05777 c -0.0339,3.45255 -1.30317,7.97133 -5.4327,8.13211 v 0.9393 h 3.58795 v 11.63545 c 0,5.17883 3.90951,5.68656 5.4327,5.68656 2.98713,0 4.1803,-2.98714 4.1803,-5.68656 v -2.40325 h -1.05777 v 2.31016 c 0,3.12253 -1.26932,4.72188 -2.83482,4.72188 -2.81789,0 -2.81789,-3.83335 -2.81789,-4.55263 z"
           id="path5174" />
        <path
           style="font-style:normal;font-variant:normal;font-weight:normal;font-stretch:normal;letter-spacing:normal;word-spacing:normal;text-anchor:start;fill:#000000;stroke:#000000;stroke-width:0;stroke-linecap:butt;stroke-linejoin:miter;stroke-miterlimit:10.43299961;stroke-opacity:1;stroke-dasharray:none;stroke-dashoffset:0"
           inkscape:connector-curvature="0"
           d="m 991.89501,289.67082 0.0169,0.16078 0.0254,0.15232 0.0339,0.16078 0.0338,0.15232 0.0423,0.16078 0.0423,0.15232 0.0508,0.15231 0.0592,0.15232 0.0677,0.15232 0.0677,0.14386 0.0762,0.15232 0.0762,0.13539 0.0846,0.1354 0.0931,0.13539 0.0931,0.13539 0.10155,0.11847 0.11,0.11847 0.11001,0.11847 0.11847,0.11001 0.11847,0.10155 0.12693,0.10154 0.1354,0.0846 0.13539,0.0846 0.14386,0.0762 0.15232,0.0677 0.15232,0.0592 0.15231,0.0508 0.16925,0.0423 0.16924,0.0339 0.16924,0.0254 0.17771,0.0169 0.18616,0.008 c 0.87161,0 3.45256,-0.60081 3.45256,-4.01105 v -2.35248 h -1.05777 v 2.35248 c 0,2.44556 -1.0493,2.69942 -1.52318,2.69942 -1.3878,0 -1.55704,-1.88706 -1.55704,-2.09861 v -8.43676 c 0,-1.77705 0,-3.41024 -1.51472,-4.97574 -1.65012,-1.63319 -3.74873,-2.31016 -5.77118,-2.31016 -3.46948,0 -6.372,1.97168 -6.372,4.75572 0,1.26086 0.84622,1.98861 1.93784,1.98861 1.17623,0 1.94629,-0.84622 1.94629,-1.9463 0,-0.49926 -0.21156,-1.88705 -2.15785,-1.94629 1.14239,-1.46395 3.19869,-1.92937 4.55263,-1.92937 2.07323,0 4.46801,1.64166 4.46801,5.39885 v 1.55703 0.88853 4.21415 c 0,4.01105 -3.02944,5.43269 -4.93342,5.43269 -2.06477,0 -3.79104,-1.48087 -3.79104,-3.57949 0,-2.31016 1.76858,-5.82195 8.72446,-6.06735 h 0 v -0.88853 c -2.14092,0.11847 -5.0942,0.25387 -7.75132,1.52319 -3.15638,1.4301 -4.21414,3.6218 -4.21414,5.47501 0,3.41024 4.08721,4.46801 6.74432,4.46801 2.78405,0 4.71342,-1.68397 5.52578,-3.66411 z"
           id="path5176" />
        <path
           style="font-style:normal;font-variant:normal;font-weight:normal;font-stretch:normal;letter-spacing:normal;word-spacing:normal;text-anchor:start;fill:#000000;stroke:#000000;stroke-width:0;stroke-linecap:butt;stroke-linejoin:miter;stroke-miterlimit:10.43299961;stroke-opacity:1;stroke-dasharray:none;stroke-dashoffset:0"
           inkscape:connector-curvature="0"
           d="m 1006.2722,276.01292 h 6.025 v -1.31163 h -6.025 v -7.75978 h -1.0578 c -0.042,3.45255 -1.3116,7.97133 -5.43267,8.13211 v 0.9393 h 3.57947 v 11.63545 c 0,5.17883 3.9095,5.68656 5.4327,5.68656 2.9871,0 4.1803,-2.98714 4.1803,-5.68656 v -2.40325 h -1.0578 v 2.31016 c 0,3.12253 -1.2693,4.72188 -2.8263,4.72188 -2.8179,0 -2.8179,-3.83335 -2.8179,-4.55263 z"
           id="path5178" />
        <path
           style="font-style:normal;font-variant:normal;font-weight:normal;font-stretch:normal;letter-spacing:normal;word-spacing:normal;text-anchor:start;fill:#000000;stroke:#000000;stroke-width:0;stroke-linecap:butt;stroke-linejoin:miter;stroke-miterlimit:10.43299961;stroke-opacity:1;stroke-dasharray:none;stroke-dashoffset:0"
           inkscape:connector-curvature="0"
           d="m 1022.7734,274.24433 -5.8981,0.45696 v 1.31163 c 2.7417,0 3.1225,0.25387 3.1225,2.31017 v 11.34773 c 0,1.88706 -0.4654,1.88706 -3.2918,1.88706 v 1.31163 c 1.3455,-0.0423 3.6218,-0.1354 4.6373,-0.1354 1.4808,0 2.9533,0.0931 4.3918,0.1354 v -1.31163 c -2.7925,0 -2.9617,-0.21156 -2.9617,-1.84475 z"
           id="path5180" />
        <path
           style="font-style:normal;font-variant:normal;font-weight:normal;font-stretch:normal;letter-spacing:normal;word-spacing:normal;text-anchor:start;fill:#000000;stroke:#000000;stroke-width:0;stroke-linecap:butt;stroke-linejoin:miter;stroke-miterlimit:10.43299961;stroke-opacity:1;stroke-dasharray:none;stroke-dashoffset:0"
           inkscape:connector-curvature="0"
           d="m 1022.9426,266.8992 0,-0.11847 -0.01,-0.12694 -0.017,-0.11847 -0.017,-0.11847 -0.025,-0.11 -0.034,-0.11001 -0.034,-0.11001 -0.042,-0.10155 -0.051,-0.10154 -0.051,-0.10155 -0.051,-0.0931 -0.059,-0.0846 -0.068,-0.0846 -0.068,-0.0846 -0.076,-0.0846 -0.068,-0.0677 -0.085,-0.0762 -0.085,-0.0677 -0.085,-0.0592 -0.085,-0.0592 -0.093,-0.0592 -0.093,-0.0508 -0.093,-0.0423 -0.1016,-0.0423 -0.1015,-0.0338 -0.1016,-0.0339 -0.1015,-0.0254 -0.1016,-0.0254 -0.11,-0.0169 -0.11,-0.008 -0.11,-0.008 -0.11,-0.008 c -1.3032,0 -2.234,1.14239 -2.234,2.23401 0,1.14238 0.9308,2.234 2.234,2.234 1.1762,0 2.234,-0.88006 2.234,-2.234 z"
           id="path5182" />
        <path
           style="font-style:normal;font-variant:normal;font-weight:normal;font-stretch:normal;letter-spacing:normal;word-spacing:normal;text-anchor:start;fill:#000000;stroke:#000000;stroke-width:0;stroke-linecap:butt;stroke-linejoin:miter;stroke-miterlimit:10.43299961;stroke-opacity:1;stroke-dasharray:none;stroke-dashoffset:0"
           inkscape:connector-curvature="0"
           d="m 1046.8482,283.84887 -0.01,-0.49927 -0.034,-0.49927 -0.059,-0.4908 -0.085,-0.48234 -0.11,-0.47388 -0.1269,-0.46542 -0.1439,-0.45696 -0.1692,-0.44849 -0.1862,-0.43157 -0.2116,-0.42311 -0.22,-0.41464 -0.2454,-0.39772 -0.2623,-0.38926 -0.2793,-0.37234 -0.2961,-0.36387 -0.3047,-0.33848 -0.33,-0.33003 -0.3385,-0.3131 -0.3469,-0.29617 -0.3724,-0.27079 -0.3723,-0.26233 -0.3893,-0.23694 -0.4061,-0.22001 -0.4147,-0.20309 -0.4231,-0.17771 -0.4316,-0.15232 -0.44,-0.13539 -0.4485,-0.11001 -0.4569,-0.0931 -0.457,-0.0592 -0.4739,-0.0423 -0.4739,-0.008 -0.042,0.92237 c 1.8532,0 3.6641,0.93084 4.7642,2.74174 1.0916,1.8109 1.0916,4.25645 1.0916,5.8558 0,1.52319 0,3.79104 -0.9223,5.64425 -0.9224,1.90398 -2.7756,3.12253 -4.8912,3.12253 h 0 c -1.8109,0 -3.6641,-0.88853 -4.798,-2.81789 -1.0578,-1.86168 -1.0578,-4.4257 -1.0578,-5.94889 0,-1.64166 0,-3.91797 0.9986,-5.77964 1.1508,-1.92937 3.1225,-2.8179 4.8149,-2.8179 l 0.042,-0.92237 c -5.2634,0 -9.3591,4.58648 -9.3591,9.8584 0,5.44115 4.3834,9.48606 9.3168,9.48606 5.1027,0 9.3592,-4.12953 9.3592,-9.48606 z"
           id="path5184" />
        <path
           style="font-style:normal;font-variant:normal;font-weight:normal;font-stretch:normal;letter-spacing:normal;word-spacing:normal;text-anchor:start;fill:#000000;stroke:#000000;stroke-width:0;stroke-linecap:butt;stroke-linejoin:miter;stroke-miterlimit:10.43299961;stroke-opacity:1;stroke-dasharray:none;stroke-dashoffset:0"
           inkscape:connector-curvature="0"
           d="m 1052.7547,278.3654 v 11.30542 c 0,1.88706 -0.4654,1.88706 -3.2917,1.88706 v 1.31163 c 1.4808,-0.0423 3.6218,-0.1354 4.7557,-0.1354 1.1001,0 3.2918,0.0931 4.7219,0.1354 v -1.31163 c -2.8179,0 -3.2834,0 -3.2834,-1.88706 v -7.75979 c 0,-4.39185 2.9956,-6.74432 5.6866,-6.74432 2.6571,0 3.1225,2.27631 3.1225,4.67956 v 9.82455 c 0,1.88706 -0.4654,1.88706 -3.2917,1.88706 v 1.31163 c 1.4808,-0.0423 3.6387,-0.1354 4.7726,-0.1354 1.1001,0 3.2833,0.0931 4.7219,0.1354 v -1.31163 c -2.2002,0 -3.2579,0 -3.2918,-1.26932 v -8.0475 c 0,-3.6218 0,-4.93343 -1.3116,-6.43969 -0.5839,-0.72775 -1.9802,-1.55704 -4.4173,-1.55704 -3.0802,0 -5.0603,1.8109 -6.2366,4.40878 v -4.40878 l -5.9488,0.45696 v 1.31163 c 2.9448,0 3.2917,0.28771 3.2917,2.35248 z"
           id="path5186" />
      </g>
      <g
         id="g5303"
         transform="translate(-189.62561,-1.8909505)">
        <path
           style="font-style:normal;font-variant:normal;font-weight:normal;font-stretch:normal;letter-spacing:normal;word-spacing:normal;text-anchor:start;fill:#000000;stroke:#000000;stroke-width:0;stroke-linecap:butt;stroke-linejoin:miter;stroke-miterlimit:10.43299961;stroke-opacity:1;stroke-dasharray:none;stroke-dashoffset:0"
           inkscape:connector-curvature="0"
           d="m 1093.1445,263.60742 -6.0758,0.46542 v 1.31163 c 2.9533,0 3.3003,0.28772 3.3003,2.36094 v 21.92541 c 0,1.88706 -0.4655,1.88706 -3.3003,1.88706 v 1.31163 c 1.3963,-0.0423 3.6303,-0.1354 4.688,-0.1354 1.0578,0 3.1141,0.0931 4.6796,0.1354 v -1.31163 c -2.8348,0 -3.2918,0 -3.2918,-1.88706 z"
           id="path5188" />
        <path
           style="font-style:normal;font-variant:normal;font-weight:normal;font-stretch:normal;letter-spacing:normal;word-spacing:normal;text-anchor:start;fill:#000000;stroke:#000000;stroke-width:0;stroke-linecap:butt;stroke-linejoin:miter;stroke-miterlimit:10.43299961;stroke-opacity:1;stroke-dasharray:none;stroke-dashoffset:0"
           inkscape:connector-curvature="0"
           d="m 1102.0382,283.12958 0.042,-0.88852 c 0.2538,-6.27891 3.791,-7.32822 5.238,-7.32822 4.3326,0 4.7557,5.68656 4.7557,7.32822 h -9.9937 l -0.042,0.88852 h 11.7709 c 0.9224,0 1.0408,0 1.0408,-0.88852 0,-4.16338 -2.2678,-8.25059 -7.5313,-8.25059 -4.8911,0 -8.7837,4.33262 -8.7837,9.61299 0,5.64425 4.4342,9.73147 9.283,9.73147 5.145,0 7.032,-4.67957 7.032,-5.47501 0,-0.42311 -0.33,-0.51619 -0.5415,-0.51619 -0.3808,0 -0.457,0.25386 -0.5501,0.59235 -1.4724,4.34108 -5.2634,4.34108 -5.6865,4.34108 -2.1156,0 -3.7995,-1.26086 -4.7642,-2.81789 -1.2694,-2.02246 -1.2694,-4.81496 -1.2694,-6.32969 z"
           id="path5190" />
        <path
           style="font-style:normal;font-variant:normal;font-weight:normal;font-stretch:normal;letter-spacing:normal;word-spacing:normal;text-anchor:start;fill:#000000;stroke:#000000;stroke-width:0;stroke-linecap:butt;stroke-linejoin:miter;stroke-miterlimit:10.43299961;stroke-opacity:1;stroke-dasharray:none;stroke-dashoffset:0"
           inkscape:connector-curvature="0"
           d="m 1133.5766,278.83082 0.034,-0.0931 0.042,-0.10154 0.042,-0.10155 0.042,-0.10155 0.051,-0.11 0.051,-0.11001 0.051,-0.11001 0.059,-0.11847 0.068,-0.11001 0.068,-0.11847 0.076,-0.11847 0.076,-0.11847 0.085,-0.11 0.093,-0.11847 0.1015,-0.11001 0.1016,-0.11001 0.11,-0.10155 0.1185,-0.11 0.1269,-0.0931 0.1354,-0.10154 0.1439,-0.0931 0.1523,-0.0846 0.1608,-0.0762 0.1692,-0.0762 0.1777,-0.0677 0.1862,-0.0592 0.2031,-0.0592 0.2115,-0.0423 0.22,-0.0423 0.11,-0.008 0.1185,-0.0169 0.1185,-0.008 0.1269,-0.008 0.1269,-0.008 0.127,0 v -1.31163 c -0.9732,0.0846 -2.1917,0.11847 -3.1564,0.11847 -1.0155,0 -2.9618,-0.0762 -3.681,-0.11847 v 1.31163 c 1.5655,0.0423 2.0309,1.007 2.0309,1.8109 0,0.37233 -0.085,0.54158 -0.2539,1.007 l -4.2988,10.74692 -4.7218,-11.75392 c -0.2454,-0.5585 -0.2454,-0.63466 -0.2454,-0.72774 0,-1.08316 1.6332,-1.08316 2.3863,-1.08316 v -1.31163 c -1.2524,0.0423 -3.6218,0.11847 -4.5865,0.11847 -1.1339,0 -2.8263,-0.0338 -4.0872,-0.11847 v 1.31163 c 2.6486,0 2.8179,0.25387 3.3764,1.55704 l 6.0673,14.9526 c 0.2539,0.60081 0.3301,0.81237 0.8886,0.81237 0.5415,0 0.7108,-0.38926 0.88,-0.81237 z"
           id="path5192" />
        <path
           style="font-style:normal;font-variant:normal;font-weight:normal;font-stretch:normal;letter-spacing:normal;word-spacing:normal;text-anchor:start;fill:#000000;stroke:#000000;stroke-width:0;stroke-linecap:butt;stroke-linejoin:miter;stroke-miterlimit:10.43299961;stroke-opacity:1;stroke-dasharray:none;stroke-dashoffset:0"
           inkscape:connector-curvature="0"
           d="m 1141.7426,283.12958 0.034,-0.88852 c 0.2538,-6.27891 3.7995,-7.32822 5.238,-7.32822 4.3411,0 4.7642,5.68656 4.7642,7.32822 h -10.0022 l -0.034,0.88852 h 11.7624 c 0.9308,0 1.0493,0 1.0493,-0.88852 0,-4.16338 -2.2763,-8.25059 -7.5398,-8.25059 -4.8911,0 -8.7752,4.33262 -8.7752,9.61299 0,5.64425 4.4257,9.73147 9.283,9.73147 5.1365,0 7.032,-4.67957 7.032,-5.47501 0,-0.42311 -0.33,-0.51619 -0.5416,-0.51619 -0.3892,0 -0.4654,0.25386 -0.5585,0.59235 -1.4639,4.34108 -5.2634,4.34108 -5.6865,4.34108 -2.1156,0 -3.7911,-1.26086 -4.7558,-2.81789 -1.2693,-2.02246 -1.2693,-4.81496 -1.2693,-6.32969 z"
           id="path5194" />
        <path
           style="font-style:normal;font-variant:normal;font-weight:normal;font-stretch:normal;letter-spacing:normal;word-spacing:normal;text-anchor:start;fill:#000000;stroke:#000000;stroke-width:0;stroke-linecap:butt;stroke-linejoin:miter;stroke-miterlimit:10.43299961;stroke-opacity:1;stroke-dasharray:none;stroke-dashoffset:0"
           inkscape:connector-curvature="0"
           d="m 1163.2026,263.60742 -6.0758,0.46542 v 1.31163 c 2.9533,0 3.3002,0.28772 3.3002,2.36094 v 21.92541 c 0,1.88706 -0.4654,1.88706 -3.3002,1.88706 v 1.31163 c 1.3962,-0.0423 3.6218,-0.1354 4.6796,-0.1354 1.0577,0 3.1225,0.0931 4.688,0.1354 v -1.31163 c -2.8348,0 -3.2918,0 -3.2918,-1.88706 z"
           id="path5196" />
      </g>
    </g>
    <g
       id="g3313"
       transform="translate(552.96848,53.001536)">
      <g
         word-spacing="normal"
         letter-spacing="normal"
         font-size-adjust="none"
         font-stretch="normal"
         font-weight="normal"
         font-variant="normal"
         font-style="normal"
         stroke-miterlimit="10.433"
         xml:space="preserve"
         transform="matrix(0.86352147,0,0,-0.86352147,-151.11626,761.84085)"
         id="content"
         style="font-style:normal;font-variant:normal;font-weight:normal;font-stretch:normal;letter-spacing:normal;word-spacing:normal;text-anchor:start;fill:none;stroke:#000000;stroke-linecap:butt;stroke-linejoin:miter;stroke-miterlimit:10.43299961;stroke-opacity:1;stroke-dasharray:none;stroke-dashoffset:0"><path
           id="path3316"
           d="m 467.04,423.68 0.02,0.1 0.02,0.11 0.03,0.11 0.03,0.11 0.03,0.12 0.03,0.12 0.06,0.24 0.06,0.25 0.06,0.25 0.06,0.24 0.06,0.25 0.02,0.11 0.03,0.12 0.03,0.11 0.02,0.11 0.03,0.1 0.02,0.1 0.02,0.1 0.02,0.08 0.02,0.09 0.01,0.07 0.02,0.07 0.01,0.07 0.01,0.05 0,0.05 0.01,0.03 0,0.02 0,0.01 c 0,0.84 -0.59,1.34 -1.44,1.34 -0.15,0 -1.54,-0.04 -2,-1.78 l -7.17,-28.86 c -0.14,-0.59 -0.14,-0.68 -0.14,-0.79 0,-0.74 0.55,-1.35 1.39,-1.35 1.05,0 1.64,0.91 1.75,1.05 0.19,0.45 0.84,3.05 2.73,10.72 1.6,-1.34 3.83,-1.55 4.83,-1.55 3.49,0 5.44,2.24 6.63,3.64 0.45,-2.25 2.29,-3.64 4.48,-3.64 1.75,0 2.89,1.14 3.69,2.74 0.84,1.79 1.5,4.84 1.5,4.93 0,0.5 -0.45,0.5 -0.59,0.5 -0.5,0 -0.55,-0.2 -0.71,-0.9 -0.84,-3.24 -1.75,-6.17 -3.78,-6.17 -1.34,0 -1.5,1.29 -1.5,2.29 0,1.1 0.6,3.44 1,5.17 l 1.39,5.4 c 0.16,0.75 0.64,2.64 0.85,3.39 0.25,1.14 0.75,3.03 0.75,3.32 0,0.91 -0.71,1.35 -1.44,1.35 -0.25,0 -1.55,-0.05 -1.95,-1.74 l -2.35,-9.32 c -0.59,-2.49 -1.14,-4.58 -1.3,-5.08 -0.04,-0.25 -2.43,-4.78 -6.46,-4.78 -2.49,0 -3.69,1.64 -3.69,4.32 0,1.46 0.34,2.85 0.7,4.25 z"
           inkscape:connector-curvature="0"
           style="fill:#000000;stroke-width:0" /></g>    </g>
    <path
       style="fill:none;stroke:#000000;stroke-width:1px;stroke-linecap:butt;stroke-linejoin:miter;stroke-opacity:1"
       d="m 0.44827,820.15362 207.66196,0 69.46439,-149.14327 -207.66196,0 z"
       id="path3022-8-3-6-6"
       inkscape:connector-curvature="0" />
    <path
       style="fill:none;stroke:#000000;stroke-width:1px;stroke-linecap:butt;stroke-linejoin:miter;stroke-opacity:1"
       d="m 69.91266,671.01035 43.91466,43.5975 -28.379291,105.54576 -84.999759,0 z"
       id="path3024-8-9-5-0"
       inkscape:connector-curvature="0" />
    <path
       style="fill:none;stroke:#000000;stroke-width:1px;stroke-linecap:butt;stroke-linejoin:miter;stroke-opacity:1"
       d="m 69.91266,671.01035 43.91466,43.5975 129.0151,30.97413 34.7322,-74.57163 z"
       id="path3026-3-8-4-1"
       inkscape:connector-curvature="0" />
    <path
       style="fill:none;stroke:#000000;stroke-width:1px;stroke-linecap:butt;stroke-linejoin:miter;stroke-opacity:1"
       d="m 277.57462,671.01035 -34.7322,74.57164 -83.54099,-20.05664 14.44221,-54.515 z"
       id="path3028-8-3-1-2"
       inkscape:connector-curvature="0" />
    <path
       style="fill:none;stroke:#000000;stroke-width:1px;stroke-linecap:butt;stroke-linejoin:miter;stroke-opacity:1"
       d="m 104.26551,750.16929 -75.24917,8.64735 -28.56807,61.33698 84.999759,0 z"
       id="path3030-0-5-8-6"
       inkscape:connector-curvature="0" />
    <path
       style="fill:#ff6600;fill-opacity:1;stroke:none"
       d="m 374.22835,443.87089 c -0.17914,1.24067 1.5916,1.9098 2.23467,2.89202 13.57358,13.41703 26.97881,27.02187 40.7405,40.23282 5.76474,1.65248 11.69344,2.89455 17.52335,4.37846 36.89389,8.91898 73.80019,17.78938 110.71889,26.60349 1.08074,-0.24023 1.07452,-1.82412 1.70087,-2.61356 11.1207,-23.54026 22.20888,-47.1101 33.09444,-70.76439 -0.0552,-1.22766 -1.73558,-0.53456 -2.54439,-0.73923 -49.24786,-0.23543 -98.49677,-0.1184 -147.74507,-0.15229 -18.45078,0 -36.90156,0 -55.35233,0 l -0.19071,0.0836 -0.18022,0.079 z"
       id="path3961"
       inkscape:connector-curvature="0"
       transform="translate(-303.20191,38.607764)" />
    <path
       style="fill:#000080;fill-opacity:1;stroke:none"
       d="m 406.27922,523.1826 c -24.44093,2.72311 -48.8757,5.58779 -73.30125,8.40226 -2.29257,3.36082 -3.70451,7.33715 -5.59461,10.96226 -7.66555,16.33484 -15.37381,32.6793 -22.80559,49.10519 0.45473,1.26473 2.39005,0.5653 3.40498,0.83596 26.24209,0.23439 52.48825,0.15731 78.73101,0.005 1.11808,0.14737 2.40981,0.008 2.33016,-1.43903 5.92925,-22.42453 12.11125,-44.85015 17.94392,-67.28315 0.036,-0.41671 -0.33923,-0.65232 -0.70862,-0.58898 z"
       id="path3963"
       inkscape:connector-curvature="0"
       transform="translate(-303.20191,38.607764)" />
    <path
       style="fill:#008000;fill-opacity:1;stroke:none"
       d="m 372.93704,444.60808 c -13.28686,28.55068 -26.6435,57.07518 -39.86704,85.65156 0.16101,1.54243 2.26397,0.43006 3.20261,0.56256 23.60578,-2.67293 47.21292,-5.33778 70.80726,-8.10895 1.16242,-1.36329 1.06179,-3.6106 1.74902,-5.30093 2.65123,-9.9175 5.33421,-19.8099 7.93245,-29.74378 -0.81883,-1.76798 -2.80641,-2.86951 -4.02745,-4.40477 -12.95662,-12.95924 -26.01653,-25.82463 -39.033,-38.72931 -0.29682,-0.20149 -0.50518,-0.12555 -0.76385,0.0736 z"
       id="path3965"
       inkscape:connector-curvature="0"
       transform="translate(-303.20191,38.607764)" />
    <path
       style="fill:#008000;fill-opacity:1;stroke:none"
       d="m 372.82661,633.60841 c -13.35777,28.41086 -26.60415,56.8808 -39.76581,85.38467 -0.027,1.57781 2.19458,0.48597 3.08303,0.59075 23.51649,-2.72264 47.06858,-5.28888 70.55872,-8.14634 1.47071,-1.8886 1.57462,-4.55989 2.41506,-6.76676 2.60522,-9.43204 5.10475,-18.89428 7.65293,-28.34237 -1.5405,-2.36031 -4.06287,-4.15323 -5.9846,-6.29323 -12.38291,-12.18393 -24.56345,-24.58651 -37.19549,-36.50955 -0.25682,-0.16415 -0.48877,-0.15624 -0.76384,0.0828 z"
       id="path3967"
       inkscape:connector-curvature="0"
       transform="translate(-303.20191,38.607764)" />
    <path
       style="fill:#000080;fill-opacity:1;stroke:none"
       d="m 406.21479,711.90684 c -24.57122,2.70735 -49.13035,5.56557 -73.66015,8.62313 -1.66863,2.23499 -2.49856,5.14001 -3.84592,7.62653 -8.19146,17.49335 -16.28686,35.0315 -24.48066,52.52374 0.48891,1.55314 3.21015,0.31132 4.57385,0.70863 26.44918,0 52.89837,0 79.34756,0 1.18929,-1.13954 1.03273,-3.36391 1.70093,-4.9187 5.70703,-21.3165 11.49635,-42.6265 17.10983,-63.95594 0.0573,-0.44692 -0.36059,-0.68237 -0.74544,-0.60739 z"
       id="path3969"
       inkscape:connector-curvature="0"
       transform="translate(-303.20191,38.607764)" />
    <path
       style="fill:#ff0000;fill-opacity:1;stroke:none"
       d="m 417.88729,676.53237 c -1.37745,1.28133 -1.35505,3.53294 -2.07049,5.21542 -9.13489,32.92196 -17.86211,65.97746 -26.72544,98.96161 0.31131,1.29226 2.26116,0.36454 3.22102,0.68102 39.48911,0.26234 78.97949,0.11847 118.46917,0.15644 1.62991,-1.92997 2.30544,-4.69949 3.56171,-6.95815 9.96185,-21.56349 20.25391,-42.99628 29.9093,-64.68656 0.26587,-0.91142 1.64975,-2.86452 -0.0184,-3.1382 -42.02895,-10.18448 -84.07684,-20.31894 -126.1628,-30.24999 l -0.0276,0 -0.15645,0.0184 z"
       id="path3971"
       inkscape:connector-curvature="0"
       transform="translate(-303.20191,38.607764)" />
    <path
       style="fill:#ff00ff;fill-opacity:1;stroke:none"
       d="m 374.31148,632.59764 c 0.20818,1.64133 2.38024,2.63148 3.36573,4.00651 13.17666,13.18548 26.35239,26.4054 39.78675,39.31162 14.47299,3.39591 28.86222,7.19454 43.41016,10.24285 1.1209,0.41776 2.04446,-0.24766 1.99622,-1.46074 4.64403,-17.19291 9.20381,-34.41235 13.71316,-51.6493 -0.73034,-1.40908 -3.20823,-0.24958 -4.61066,-0.6258 -32.42495,0 -64.84989,0 -97.27484,0 l -0.26832,0.12138 -0.1182,0.0535 z"
       id="path3973"
       inkscape:connector-curvature="0"
       transform="translate(-303.20191,38.607764)" />
    <path
       style="fill:#ff6600;fill-opacity:1;stroke:none"
       d="m 500.19875,632.57167 c -7.57864,0.13466 -15.19229,-0.21006 -22.74961,0.35891 -1.24768,0.66533 -0.88088,2.61641 -1.45916,3.75315 -4.35086,16.38826 -8.79921,32.84721 -12.94341,49.25566 0.58338,1.28309 2.6047,1.12868 3.77243,1.66809 25.27367,6.40332 50.69539,12.34826 76.05924,18.43376 1.08577,0.16713 2.87906,1.19251 3.27068,-0.46282 8.08577,-16.10771 15.42912,-32.58796 23.12685,-48.88761 3.59664,-7.72312 7.20652,-15.4401 10.78591,-23.17124 -0.13395,-1.43435 -2.31413,-0.48127 -3.31302,-0.78858 -25.5157,-0.22933 -51.03343,-0.15758 -76.54991,-0.15932 z"
       id="path3975"
       inkscape:connector-curvature="0"
       transform="translate(-303.20191,38.607764)" />
    <path
       style="fill:#ff0000;fill-opacity:1;stroke:none"
       d="m 417.29517,487.86968 c -2.48634,8.09014 -4.50035,16.39808 -6.78652,24.57591 -7.17025,26.52869 -14.2359,53.08728 -21.45723,79.60113 0.69452,1.42712 3.20726,0.25454 4.60146,0.63437 39.09706,-0.008 78.19412,-0.01 117.29119,-0.009 1.62863,-1.93056 2.30084,-4.70163 3.55503,-6.96126 10.3571,-22.27165 20.70546,-44.54738 31.10316,-66.80012 -0.44262,-1.51254 -3.05744,-0.97373 -4.34041,-1.66145 -41.18343,-9.82834 -82.31569,-19.88655 -123.55255,-29.48123 l -0.28607,0.0699 -0.12806,0.0313 z"
       id="path3977"
       inkscape:connector-curvature="0"
       transform="translate(-303.20191,38.607764)" />
    <path
       style="fill:none;stroke:none"
       d="m 516.81421,291.63427 43.91466,43.5975 -28.37929,105.54571 -84.99976,0 z"
       id="path3024-8-6-7"
       inkscape:connector-curvature="0" />
    <path
       style="fill:#00ff00;fill-opacity:1;stroke:none"
       d="m 516.56509,292.85804 c -23.01535,48.87374 -45.6167,97.95454 -68.59271,146.84791 0.11524,1.66211 2.95112,0.41794 4.16918,0.79751 26.58749,-0.0461 53.17497,-0.0922 79.76246,-0.13826 1.18206,-1.12929 1.02338,-3.31112 1.68292,-4.84541 8.96246,-33.32114 17.92104,-66.64333 26.87736,-99.96612 -1.51448,-2.32131 -3.99405,-4.0851 -5.88325,-6.18994 -12.40439,-12.21112 -24.60474,-24.64229 -37.2558,-36.58714 -0.26171,-0.14257 -0.48716,-0.16751 -0.76016,0.0814 z"
       id="path3954-7"
       inkscape:connector-curvature="0" />
    <path
       style="fill:#ff0000;fill-opacity:1;stroke:none"
       d="m 518.44168,101.96239 c 0.59175,2.10198 3.29345,3.47803 4.6662,5.3044 12.6206,12.65075 25.24102,25.3017 37.8614,37.95268 -9.35768,34.93136 -18.91632,69.81253 -28.1427,104.77683 1.38387,1.47644 4.58701,0.1768 6.62934,0.6143 38.32134,0 76.64267,0 114.96401,0 2.49861,-3.79525 4.02573,-8.42999 6.15385,-12.54538 20.96794,-45.10648 42.09393,-90.16659 62.8911,-135.33495 -0.69525,-1.6077 -3.56573,-0.25181 -5.01667,-0.74163 -66.53589,-0.3658 -133.07324,-0.1653 -199.60979,-0.21821 l -0.36865,0.17837 -0.0281,0.0136 z"
       id="path4055-3"
       inkscape:connector-curvature="0" />
    <path
       style="fill:#ff6600;fill-opacity:1;stroke:none"
       d="m 521.87626,479.96668 c -0.17914,1.24067 1.5916,1.9098 2.23467,2.89202 13.57358,13.41703 26.97881,27.02187 40.7405,40.23282 5.76474,1.65248 11.69344,2.89455 17.52335,4.37846 36.89389,8.91898 73.80019,17.78938 110.71889,26.60349 1.08074,-0.24023 1.07452,-1.82412 1.70087,-2.61356 11.1207,-23.54026 22.20888,-47.1101 33.09444,-70.76439 -0.0552,-1.22766 -1.73558,-0.53456 -2.54439,-0.73923 -49.24786,-0.23543 -98.49677,-0.1184 -147.74507,-0.15229 -18.45078,0 -36.90156,0 -55.35233,0 l -0.19071,0.0836 -0.18022,0.079 z"
       id="path3961-2"
       inkscape:connector-curvature="0" />
    <path
       style="fill:#008000;fill-opacity:1;stroke:none"
       d="m 512.47452,671.70425 c -13.35777,28.4108 -26.60415,56.8808 -39.76581,85.3846 -0.027,1.5778 2.19458,0.486 3.08303,0.5908 23.51649,-2.7227 47.06858,-5.2889 70.55872,-8.1464 1.47071,-1.8886 1.57462,-4.5599 2.41506,-6.7667 2.60522,-9.4321 5.10475,-18.8943 7.65293,-28.3424 -1.5405,-2.3603 -4.06287,-4.1532 -5.9846,-6.2932 -12.38291,-12.184 -24.56345,-24.5865 -37.19549,-36.5096 -0.25682,-0.1641 -0.48877,-0.1562 -0.76384,0.083 z"
       id="path3967-5"
       inkscape:connector-curvature="0" />
    <path
       style="fill:#000080;fill-opacity:1;stroke:none"
       d="m 545.8627,754.00265 c -24.57122,2.7073 -49.13035,5.5656 -73.66015,8.6231 -1.66863,2.235 -2.49856,5.14 -3.84592,7.6265 -8.19146,17.4934 -16.28686,35.0315 -24.48066,52.5238 0.48891,1.5531 3.21015,0.3113 4.57385,0.7086 26.44918,0 52.89837,0 79.34756,0 1.18929,-1.1395 1.03273,-3.3639 1.70093,-4.9187 5.70703,-21.3165 11.49635,-42.6265 17.10983,-63.9559 0.0573,-0.4469 -0.36059,-0.6824 -0.74544,-0.6074 z"
       id="path3969-8"
       inkscape:connector-curvature="0" />
    <path
       style="fill:#ff0000;fill-opacity:1;stroke:none"
       d="m 565.5352,718.62815 c -1.37745,1.2813 -1.35505,3.533 -2.07049,5.2154 -9.13489,32.922 -17.86211,65.9775 -26.72544,98.9616 0.31131,1.2923 2.26116,0.3646 3.22102,0.6811 39.48911,0.2623 78.97949,0.1184 118.46917,0.1564 1.62991,-1.93 2.30544,-4.6995 3.56171,-6.9581 9.96185,-21.5635 20.25391,-42.9963 29.9093,-64.6866 0.26587,-0.9114 1.64975,-2.8645 -0.0184,-3.1382 -42.02895,-10.1845 -84.07684,-20.3189 -126.1628,-30.25 l -0.0276,0 -0.15645,0.018 z"
       id="path3971-9"
       inkscape:connector-curvature="0" />
    <path
       style="fill:#ff00ff;fill-opacity:1;stroke:none"
       d="m 517.95939,666.69345 c 0.20818,1.6413 2.38024,2.6315 3.36573,4.0065 13.17666,13.1855 26.35239,26.4054 39.78675,39.3116 14.47299,3.3959 28.86222,7.1946 43.41016,10.2429 1.1209,0.4177 2.04446,-0.2477 1.99622,-1.4608 4.64403,-17.1929 9.20381,-34.4123 13.71316,-51.6493 -0.73034,-1.4091 -3.20823,-0.2496 -4.61066,-0.6258 -32.42495,0 -64.84989,0 -97.27484,0 l -0.26832,0.1214 -0.1182,0.053 z"
       id="path3973-9"
       inkscape:connector-curvature="0" />
    <path
       style="fill:#ff6600;fill-opacity:1;stroke:none"
       d="m 647.84666,666.66745 c -7.57864,0.1347 -15.19229,-0.21 -22.74961,0.3589 -1.24768,0.6654 -0.88088,2.6164 -1.45916,3.7532 -4.35086,16.3882 -8.79921,32.8472 -12.94341,49.2556 0.58338,1.2831 2.6047,1.1287 3.77243,1.6681 25.27367,6.4033 50.69539,12.3483 76.05924,18.4338 1.08577,0.1671 2.87906,1.1925 3.27068,-0.4628 8.08577,-16.1077 15.42912,-32.588 23.12685,-48.8876 3.59664,-7.7232 7.20652,-15.4401 10.78591,-23.1713 -0.13395,-1.4343 -2.31413,-0.4813 -3.31302,-0.7886 -25.5157,-0.2293 -51.03343,-0.1575 -76.54991,-0.1593 z"
       id="path3975-6"
       inkscape:connector-curvature="0" />
    <path
       sodipodi:type="arc"
       style="fill:none;stroke:#000000;stroke-width:2;stroke-linecap:butt;stroke-linejoin:miter;stroke-miterlimit:4;stroke-opacity:1;stroke-dasharray:none;stroke-dashoffset:0"
       id="path4113"
       sodipodi:cx="548.47327"
       sodipodi:cy="78.778748"
       sodipodi:rx="11.004215"
       sodipodi:ry="11.004215"
       d="m 559.47748,78.778748 c 0,6.07746 -4.92675,11.004215 -11.00421,11.004215 -6.07746,0 -11.00422,-4.926755 -11.00422,-11.004215 0,-6.077461 4.92676,-11.004216 11.00422,-11.004216 6.07746,0 11.00421,4.926755 11.00421,11.004216 z"
       transform="translate(1.5764453,-75.912019)" />
    <path
       sodipodi:type="arc"
       style="fill:none;stroke:#000000;stroke-width:2;stroke-linecap:butt;stroke-linejoin:miter;stroke-miterlimit:4;stroke-opacity:1;stroke-dasharray:none;stroke-dashoffset:0"
       id="path4113-5"
       sodipodi:cx="548.47327"
       sodipodi:cy="78.778748"
       sodipodi:rx="11.004215"
       sodipodi:ry="11.004215"
       d="m 559.47748,78.778748 c 0,6.07746 -4.92675,11.004215 -11.00421,11.004215 -6.07746,0 -11.00422,-4.926755 -11.00422,-11.004215 0,-6.077461 4.92676,-11.004216 11.00422,-11.004216 6.07746,0 11.00421,4.926755 11.00421,11.004216 z"
       transform="translate(49.157322,109.95896)" />
    <path
       sodipodi:type="arc"
       style="fill:none;stroke:#000000;stroke-width:2;stroke-linecap:butt;stroke-linejoin:miter;stroke-miterlimit:4;stroke-opacity:1;stroke-dasharray:none;stroke-dashoffset:0"
       id="path4113-4"
       sodipodi:cx="548.47327"
       sodipodi:cy="78.778748"
       sodipodi:rx="11.004215"
       sodipodi:ry="11.004215"
       d="m 559.47748,78.778748 c 0,6.07746 -4.92675,11.004215 -11.00421,11.004215 -6.07746,0 -11.00422,-4.926755 -11.00422,-11.004215 0,-6.077461 4.92676,-11.004216 11.00422,-11.004216 6.07746,0 11.00421,4.926755 11.00421,11.004216 z"
       transform="translate(-46.099828,312.41572)" />
    <path
       sodipodi:type="arc"
       style="fill:none;stroke:#000000;stroke-width:2;stroke-linecap:butt;stroke-linejoin:miter;stroke-miterlimit:4;stroke-opacity:1;stroke-dasharray:none;stroke-dashoffset:0"
       id="path4113-52"
       sodipodi:cx="548.47327"
       sodipodi:cy="78.778748"
       sodipodi:rx="11.004215"
       sodipodi:ry="11.004215"
       d="m 559.47748,78.778748 c 0,6.07746 -4.92675,11.004215 -11.00421,11.004215 -6.07746,0 -11.00422,-4.926755 -11.00422,-11.004215 0,-6.077461 4.92676,-11.004216 11.00422,-11.004216 6.07746,0 11.00421,4.926755 11.00421,11.004216 z"
       transform="translate(111.38705,431.3205)" />
    <path
       style="fill:none;stroke:#000000;stroke-width:2;stroke-linecap:butt;stroke-linejoin:miter;stroke-miterlimit:4;stroke-opacity:1;stroke-dasharray:none"
       d="m 842.24741,-35.741035 -36.67206,0 0,377.323525"
       id="path4240"
       inkscape:connector-curvature="0"
       transform="translate(-303.20191,38.607764)" />
    <path
       style="fill:none;stroke:#000000;stroke-width:2;stroke-linecap:butt;stroke-linejoin:miter;stroke-miterlimit:4;stroke-opacity:1;stroke-dasharray:none"
       d="m 864.25584,-35.741035 36.57666,0 0,174.866765"
       id="path4260"
       inkscape:connector-curvature="0"
       transform="translate(-303.20191,38.607764)" />
    <path
       style="fill:none;stroke:#000000;stroke-width:2;stroke-linecap:butt;stroke-linejoin:miter;stroke-miterlimit:4;stroke-opacity:1;stroke-dasharray:none"
       d="m 911.83671,150.12994 51.22552,0 0,310.35733"
       id="path4262"
       inkscape:connector-curvature="0"
       transform="translate(-303.20191,38.607764)" />
    <path
       style="fill:none;stroke:#000000;stroke-width:2;stroke-linecap:butt;stroke-linejoin:miter;stroke-miterlimit:4;stroke-opacity:1;stroke-dasharray:none"
       d="m 869.60299,761.0602 -2.91534,-610.93026 23.14063,0"
       id="path4264"
       inkscape:connector-curvature="0"
       transform="translate(-303.20191,38.607764)" />
    <path
       style="fill:none;stroke:#000000;stroke-width:2;stroke-linecap:butt;stroke-linejoin:miter;stroke-miterlimit:4;stroke-opacity:1;stroke-dasharray:none"
       d="m 952.05801,471.49148 -52.67524,0 0,174.20262"
       id="path4266"
       inkscape:connector-curvature="0"
       transform="translate(-303.20191,38.607764)" />
    <path
       style="fill:none;stroke:#000000;stroke-width:2;stroke-linecap:butt;stroke-linejoin:miter;stroke-miterlimit:4;stroke-opacity:1;stroke-dasharray:none"
       d="m 974.06644,471.49148 20.47951,0 0,191.28026"
       id="path4268"
       inkscape:connector-curvature="0"
       transform="translate(-303.20191,38.607764)" />
    <path
       style="fill:none;stroke:#000000;stroke-width:2;stroke-linecap:butt;stroke-linejoin:miter;stroke-miterlimit:4;stroke-opacity:1;stroke-dasharray:none"
       d="m 839.61668,679.4308 0,-326.8441 -23.03712,0"
       id="path4270"
       inkscape:connector-curvature="0"
       transform="translate(-303.20191,38.607764)" />
    <path
       style="fill:none;stroke:#000000;stroke-width:2;stroke-linecap:butt;stroke-linejoin:miter;stroke-miterlimit:4;stroke-opacity:1;stroke-dasharray:none"
       d="m 768.03872,769.38132 0,-416.79462 26.53241,0"
       id="path4272"
       inkscape:connector-curvature="0"
       transform="translate(-303.20191,38.607764)" />
    <path
       style="fill:none;stroke:#000000;stroke-width:6;stroke-linecap:round;stroke-linejoin:miter;stroke-miterlimit:0.70000005;stroke-opacity:1;stroke-dasharray:none;marker-start:none;marker-end:url(#Arrow2Lend-2)"
       d="m -46.674382,108.72387 0,629.6862 0,74.27543"
       id="path4274"
       inkscape:connector-curvature="0"
       sodipodi:nodetypes="ccc" />
    <path
       style="fill:none;stroke:#000000;stroke-width:6;stroke-linecap:round;stroke-linejoin:miter;stroke-miterlimit:0.70000005;stroke-opacity:1;stroke-dasharray:none;marker-start:none;marker-end:url(#Arrow2Lend-2)"
       d="m 770.08753,813.69184 0,-629.68619 0,-74.27543"
       id="path4274-0"
       inkscape:connector-curvature="0"
       sodipodi:nodetypes="ccc" />
  </g>
</svg>
